<svg xmlns="http://www.w3.org/2000/svg" width="48" height="48" viewBox="0 0 48 48" role="img" aria-label="Claw - Digital Familiar">
  <!-- Background -->
  <rect width="48" height="48" rx="8" fill="#1e293b"/>
  
  <!-- Lobster body (simplified) -->
  <ellipse cx="24" cy="28" rx="12" ry="8" fill="#dc2626"/>
  
  <!-- Mechanical claw left -->
  <path d="M8 24 Q12 20, 16 22 Q20 24, 18 28 Q16 32, 12 30 Q8 28, 8 24" fill="#4b5563"/>
  <rect x="10" y="22" width="4" height="8" rx="1" fill="#6b7280"/>
  
  <!-- Mechanical claw right -->
  <path d="M40 24 Q36 20, 32 22 Q28 24, 30 28 Q32 32, 36 30 Q40 28, 40 24" fill="#4b5563"/>
  <rect x="34" y="22" width="4" height="8" rx="1" fill="#6b7280"/>
  
  <!-- Eye (single central - robotic) -->
  <circle cx="24" cy="20" r="3" fill="#3b82f6"/>
  <circle cx="24" cy="20" r="1" fill="#ffffff"/>
  
  <!-- Antenna/feelers -->
  <line x1="22" y1="16" x2="18" y2="12" stroke="#f59e0b" stroke-width="1.5" stroke-linecap="round"/>
  <line x1="26" y1="16" x2="30" y2="12" stroke="#f59e0b" stroke-width="1.5" stroke-linecap="round"/>
  
  <!-- Tail segments -->
  <rect x="22" y="36" width="4" height="6" rx="1" fill="#dc2626"/>
  <rect x="20" y="40" width="8" height="4" rx="1" fill="#b91c1c"/>
  
  <!-- Gear/cog detail -->
  <circle cx="24" cy="28" r="2" fill="#1e293b" stroke="#f59e0b" stroke-width="0.5"/>
  <path d="M24 26 L24 30 M22 28 L26 28" stroke="#f59e0b" stroke-width="0.5"/>
</svg>